<svg xmlns="http://www.w3.org/2000/svg" viewBox="0 0 1200 900" role="img" aria-label="Decorative round and square cages">
  <defs>
    <linearGradient id="bg4" x1="0" y1="0" x2="1" y2="1">
      <stop offset="0%" stop-color="#f8fafc"/>
      <stop offset="100%" stop-color="#fef3c7"/>
    </linearGradient>
  </defs>
  <rect width="1200" height="900" fill="url(#bg4)"/>

  <rect x="250" y="260" width="290" height="290" rx="16" fill="none" stroke="#92400e" stroke-width="16"/>
  <line x1="290" y1="260" x2="290" y2="550" stroke="#92400e" stroke-width="8"/>
  <line x1="330" y1="260" x2="330" y2="550" stroke="#92400e" stroke-width="8"/>
  <line x1="370" y1="260" x2="370" y2="550" stroke="#92400e" stroke-width="8"/>
  <line x1="410" y1="260" x2="410" y2="550" stroke="#92400e" stroke-width="8"/>
  <line x1="450" y1="260" x2="450" y2="550" stroke="#92400e" stroke-width="8"/>
  <line x1="490" y1="260" x2="490" y2="550" stroke="#92400e" stroke-width="8"/>

  <circle cx="810" cy="400" r="175" fill="none" stroke="#92400e" stroke-width="16"/>
  <line x1="730" y1="245" x2="730" y2="555" stroke="#92400e" stroke-width="8"/>
  <line x1="770" y1="230" x2="770" y2="570" stroke="#92400e" stroke-width="8"/>
  <line x1="810" y1="225" x2="810" y2="575" stroke="#92400e" stroke-width="8"/>
  <line x1="850" y1="230" x2="850" y2="570" stroke="#92400e" stroke-width="8"/>
  <line x1="890" y1="245" x2="890" y2="555" stroke="#92400e" stroke-width="8"/>

  <circle cx="395" cy="410" r="28" fill="#f59e0b"/>
  <circle cx="810" cy="400" r="30" fill="#f59e0b"/>

  <text x="600" y="760" text-anchor="middle" font-family="Arial, sans-serif" font-size="52" fill="#1e293b">Decorative Cages Collection</text>
</svg>
