<svg width="1200" height="900" viewBox="0 0 1200 900" fill="none" xmlns="http://www.w3.org/2000/svg">
  <defs>
    <radialGradient id="rg" cx="0" cy="0" r="1" gradientUnits="userSpaceOnUse" gradientTransform="translate(760 420) rotate(25) scale(560 430)">
      <stop stop-color="#F05656" stop-opacity="0.22"/>
      <stop offset="1" stop-color="#F05656" stop-opacity="0"/>
    </radialGradient>
    <linearGradient id="lg" x1="520" y1="220" x2="860" y2="740" gradientUnits="userSpaceOnUse">
      <stop stop-color="#111827" stop-opacity="0.32"/>
      <stop offset="1" stop-color="#111827" stop-opacity="0.06"/>
    </linearGradient>
  </defs>
  <rect width="1200" height="900" fill="transparent"/>
  <circle cx="820" cy="470" r="360" stroke="#F05656" stroke-opacity="0.35" stroke-width="6"/>
  <circle cx="820" cy="470" r="310" fill="url(#rg)"/>
  <g opacity="0.95">
    <path d="M710 265c60-46 143-52 203-15 68 42 95 127 62 195-22 46-62 71-107 94-36 18-71 43-87 83-12 29-11 62-25 92-18 39-62 64-105 56-45-9-77-53-79-98-2-46 20-88 30-131 14-61-9-128 10-186 17-52 50-136 98-190Z" fill="url(#lg)"/>
    <path d="M760 320c44-36 110-36 152 0 37 31 51 83 35 128-11 32-36 55-64 72-28 17-59 30-76 59-20 34-12 88-50 108-22 12-53 3-71-15-33-33-25-94-16-137 8-39 10-77-1-116-12-44 54-84 91-99Z" fill="#111827" fill-opacity="0.10"/>
  </g>
  <g opacity="0.8">
    <path d="M880 260c55 20 90 73 86 132-4 60-44 110-103 127" stroke="#111827" stroke-opacity="0.22" stroke-width="6" stroke-linecap="round"/>
    <path d="M905 625c-12 58-64 105-126 111" stroke="#111827" stroke-opacity="0.18" stroke-width="6" stroke-linecap="round"/>
  </g>
</svg>

